<svg xmlns="http://www.w3.org/2000/svg" viewBox="0 0 64 64" role="img" aria-label="Dobleg Premoldeados">
  <defs>
    <linearGradient id="g" x1="0" x2="1" y1="0" y2="1">
      <stop offset="0%" stop-color="#4DA1A9"/>
      <stop offset="100%" stop-color="#8EC7E0"/>
    </linearGradient>
  </defs>
  <rect x="2" y="2" width="60" height="60" rx="12" fill="url(#g)"/>
  <g fill="#ffffff">
    <path d="M18 20h12c6 0 10 4 10 10s-4 10-10 10H18V20zm12 16a6 6 0 0 0 0-12h-6v12h6z"/>
    <path d="M34 20h12c6 0 10 4 10 10c0 4.4-2.3 8-6 9.5l-2.2-5.1c1.9-.7 3.2-2.3 3.2-4.4a6 6 0 0 0-6-6h-5v18H34V20z"/>
  </g>
</svg>

